<svg xmlns="http://www.w3.org/2000/svg" xmlns:xlink="http://www.w3.org/1999/xlink" width="18" height="57" version="1.1" viewBox="0 0 18 57"><title>Artboard 2</title><desc>Created with Sketch.</desc><g id="Page-1" fill="none" fill-rule="evenodd" stroke="none" stroke-width="1"><g id="Artboard-2"><g id="Imported-Layers" fill="#6B6B6A"><path id="Fill-1" d="M11.243,0.092 L-0.025,0.092 L-0.025,22.41 L17.416,22.41 L17.416,6.262 L11.243,0.092 L11.243,0.092 Z M11.863,3.539 L13.971,5.646 L11.863,5.646 L11.863,3.539 L11.863,3.539 Z M1.975,20.41 L1.975,2.092 L9.863,2.092 L9.863,7.646 L15.417,7.646 L15.417,20.41 L1.975,20.41 L1.975,20.41 Z"/><path id="Fill-2" d="M3.751,9.355 L11.54,9.355 L11.54,11.355 L3.751,11.355 L3.751,9.355 Z"/><path id="Fill-3" d="M3.751,12.605 L11.54,12.605 L11.54,14.605 L3.751,14.605 L3.751,12.605 Z"/><path id="Fill-4" d="M3.751,15.856 L9.102,15.856 L9.102,17.856 L3.751,17.856 L3.751,15.856 Z"/></g><g id="Imported-Layers" fill="#A39F9A" transform="translate(0.000000, 34.000000)"><path id="Fill-1" d="M11.243,0.092 L-0.025,0.092 L-0.025,22.41 L17.416,22.41 L17.416,6.262 L11.243,0.092 L11.243,0.092 Z M11.863,3.539 L13.971,5.646 L11.863,5.646 L11.863,3.539 L11.863,3.539 Z M1.975,20.41 L1.975,2.092 L9.863,2.092 L9.863,7.646 L15.417,7.646 L15.417,20.41 L1.975,20.41 L1.975,20.41 Z"/><path id="Fill-2" d="M3.751,9.355 L11.54,9.355 L11.54,11.355 L3.751,11.355 L3.751,9.355 Z"/><path id="Fill-3" d="M3.751,12.605 L11.54,12.605 L11.54,14.605 L3.751,14.605 L3.751,12.605 Z"/><path id="Fill-4" d="M3.751,15.856 L9.102,15.856 L9.102,17.856 L3.751,17.856 L3.751,15.856 Z"/></g></g></g></svg>