<svg xmlns="http://www.w3.org/2000/svg" xmlns:xlink="http://www.w3.org/1999/xlink" width="21" height="27" version="1.1" viewBox="0 0 21 27"><title>doc-single-icon</title><desc>Created with Sketch.</desc><g id="Page-1" fill="none" fill-rule="evenodd" stroke="none" stroke-width="1"><g id="doc-single-icon" fill="#6B6B6A"><g id="Page-1"><g id="doc-icon"><g id="Page-1"><g id="Artboard-2"><g id="Imported-Layers"><path id="Fill-1" d="M13.1761053,0.108 L0.128947368,0.108 L0.128947368,26.3073913 L20.3237895,26.3073913 L20.3237895,7.35104348 L13.1761053,0.108 L13.1761053,0.108 Z M13.894,4.15447826 L16.3348421,6.62791304 L13.894,6.62791304 L13.894,4.15447826 L13.894,4.15447826 Z M2.44473684,2.45582609 L11.5782105,2.45582609 L11.5782105,8.97573913 L18.0091579,8.97573913 L18.0091579,23.9595652 L2.44473684,23.9595652 L2.44473684,2.45582609 Z"/><path id="Fill-2" d="M13.52,10.9819565 L13.52,13.3297826 L4.50115789,13.3297826 L4.50115789,10.9819565 L13.52,10.9819565 Z"/><path id="Fill-3" d="M4.50115789,14.7971739 L13.52,14.7971739 L13.52,17.145 L4.50115789,17.145 L4.50115789,14.7971739 L4.50115789,14.7971739 Z"/><path id="Fill-4" d="M4.50115789,18.6135652 L10.6970526,18.6135652 L10.6970526,20.9613913 L4.50115789,20.9613913 L4.50115789,18.6135652 L4.50115789,18.6135652 Z"/></g></g></g></g></g></g></g></svg>