<svg xmlns="http://www.w3.org/2000/svg" xmlns:xlink="http://www.w3.org/1999/xlink" width="18" height="57" version="1.1" viewBox="0 0 18 57"><title>forum-icon</title><desc>Created with Sketch.</desc><g id="Page-1" fill="none" fill-rule="evenodd" stroke="none" stroke-width="1"><g id="forum-icon"><g id="Group" fill="#6B6B6A"><path id="Shape" d="M9.6,22.5 L6.7,17.9 L0.1,17.9 L0.1,0.2 L17.7,0.2 L17.7,17.9 L12.4,17.9 L9.6,22.5 L9.6,22.5 Z M2.2,15.8 L7.9,15.8 L9.7,18.6 L11.5,15.8 L15.9,15.8 L15.9,2.2 L2.4,2.2 L2.4,15.8 L2.2,15.8 Z"/><path id="Fill-2_3_" d="M4.9,4.5 L12.9,4.5 L12.9,6.6 L4.9,6.6 L4.9,4.5 L4.9,4.5 Z"/><path id="Fill-3_3_" d="M4.9,7.9 L12.9,7.9 L12.9,10 L4.9,10 L4.9,7.9 L4.9,7.9 Z"/><path id="Fill-4_3_" d="M4.9,11.2 L10.4,11.2 L10.4,13.3 L4.9,13.3 L4.9,11.2 L4.9,11.2 Z"/></g><g id="Group" fill="#A39F9A" transform="translate(0.000000, 34.000000)"><path id="Shape" d="M9.7,22.5 L6.8,17.9 L0.2,17.9 L0.2,0.2 L17.8,0.2 L17.8,17.9 L12.5,17.9 L9.7,22.5 L9.7,22.5 Z M2.2,15.8 L7.9,15.8 L9.7,18.6 L11.5,15.8 L15.9,15.8 L15.9,2.2 L2.4,2.2 L2.4,15.8 L2.2,15.8 Z"/><path id="Fill-2_4_" d="M5,4.6 L13,4.6 L13,6.7 L5,6.7 L5,4.6 L5,4.6 Z"/><path id="Fill-3_4_" d="M5,7.9 L13,7.9 L13,10 L5,10 L5,7.9 L5,7.9 Z"/><path id="Fill-4_4_" d="M5,11.3 L10.5,11.3 L10.5,13.4 L5,13.4 L5,11.3 L5,11.3 Z"/></g></g></g></svg>