<svg xmlns="http://www.w3.org/2000/svg" xmlns:xlink="http://www.w3.org/1999/xlink" width="18" height="57" version="1.1" viewBox="0 0 18 57"><title>Imported Layers + Imported Layers + Imported Layers</title><desc>Created with Sketch.</desc><g id="Page-1" fill="none" fill-rule="evenodd" stroke="none" stroke-width="1"><g id="Imported-Layers-+-Imported-Layers-+-Imported-Layers"><g id="Imported-Layers"><path id="Fill-1" fill="#6B6B6A" d="M9.617,22.454 L6.723,17.813 L0.133,17.813 L0.133,0.092 L17.779,0.092 L17.779,17.813 L12.511,17.813 L9.617,22.454 L9.617,22.454 Z M2.194,15.752 L7.866,15.752 L9.617,18.559 L11.368,15.752 L15.718,15.752 L15.718,2.153 L2.194,2.153 L2.194,15.752 L2.194,15.752 Z"/><path id="Fill-2" fill="#6B6B6A" d="M4.943,4.504 L12.969,4.504 L12.969,6.565 L4.943,6.565 L4.943,4.504 Z"/><path id="Fill-3" fill="#6B6B6A" d="M4.943,7.853 L12.969,7.853 L12.969,9.914 L4.943,9.914 L4.943,7.853 Z"/><path id="Fill-4" fill="#6B6B6A" d="M4.943,11.203 L10.457,11.203 L10.457,13.264 L4.943,13.264 L4.943,11.203 Z"/><path id="Fill-5" fill="#A39F9A" d="M9.661,56.536 L6.767,51.895 L0.177,51.895 L0.177,34.174 L17.823,34.174 L17.823,51.895 L12.555,51.895 L9.661,56.536 L9.661,56.536 Z M2.238,49.834 L7.91,49.834 L9.661,52.642 L11.412,49.834 L15.762,49.834 L15.762,36.235 L2.238,36.235 L2.238,49.834 L2.238,49.834 Z"/><path id="Fill-6" fill="#A39F9A" d="M4.987,38.586 L13.013,38.586 L13.013,40.647 L4.987,40.647 L4.987,38.586 Z"/><path id="Fill-7" fill="#A39F9A" d="M4.987,41.935 L13.013,41.935 L13.013,43.996 L4.987,43.996 L4.987,41.935 Z"/><path id="Fill-8" fill="#A39F9A" d="M4.987,45.285 L10.501,45.285 L10.501,47.346 L4.987,47.346 L4.987,45.285 Z"/></g><path id="Imported-Layers" fill="#6B6B6A" d="M0,0 L0,22.62 L2,22.62 L2,2 L5.599,2 L5.619,19.171 L12.014,19.171 L12.014,2 L15.613,2 L15.613,22.62 L17.613,22.62 L17.613,0 L0,0 L0,0 Z M6.598,2 L11.015,2 L11.015,17.171 L6.598,17.171 L6.598,2 Z"/><path id="Imported-Layers" fill="#A39F9A" d="M0,34 L0,56.62 L2,56.62 L2,36 L5.599,36 L5.619,53.171 L12.014,53.171 L12.014,36 L15.613,36 L15.613,56.62 L17.613,56.62 L17.613,34 L0,34 L0,34 Z M6.598,36 L11.015,36 L11.015,51.171 L6.598,51.171 L6.598,36 Z"/></g></g></svg>